<svg xmlns="http://www.w3.org/2000/svg" viewBox="0 0 722 702" fill="none">
  <path d="M361 0L692 170.5V531.5L361 702L30 531.5V170.5L361 0Z" fill="#326CE5"/>
  <path d="M361 25L668 182V520L361 677L54 520V182L361 25Z" fill="#326CE5"/>
  <g fill="#fff">
    <path d="M361 142c-9.9 0-18 8.1-18 18v10.5c-0.4 3.5-2.5 6.4-5.8 7.6l-0.7 0.2c-3.3 1-7 0.2-9.5-2.2L319.5 169c-7-7-18.4-7-25.4 0s-7 18.4 0 25.4l7.5 7.5c2.4 2.5 3.2 6.2 2.2 9.5l-0.2 0.7c-1.2 3.3-4.1 5.4-7.6 5.8H285.5c-9.9 0-18 8.1-18 18s8.1 18 18 18h10.5c3.5 0.4 6.4 2.5 7.6 5.8l0.2 0.7c1 3.3 0.2 7-2.2 9.5L294 276.9c-7 7-7 18.4 0 25.4s18.4 7 25.4 0l7.5-7.5c2.5-2.4 6.2-3.2 9.5-2.2l0.7 0.2c3.3 1.2 5.4 4.1 5.8 7.6V311c0 9.9 8.1 18 18 18s18-8.1 18-18v-10.5c0.4-3.5 2.5-6.4 5.8-7.6l0.7-0.2c3.3-1 7-0.2 9.5 2.2l7.5 7.5c7 7 18.4 7 25.4 0s7-18.4 0-25.4l-7.5-7.5c-2.4-2.5-3.2-6.2-2.2-9.5l0.2-0.7c1.2-3.3 4.1-5.4 7.6-5.8H436.5c9.9 0 18-8.1 18-18s-8.1-18-18-18h-10.5c-3.5-0.4-6.4-2.5-7.6-5.8l-0.2-0.7c-1-3.3-0.2-7 2.2-9.5l7.5-7.5c7-7 7-18.4 0-25.4s-18.4-7-25.4 0l-7.5 7.5c-2.5 2.4-6.2 3.2-9.5 2.2l-0.7-0.2c-3.3-1.2-5.4-4.1-5.8-7.6V160c0-9.9-8.1-18-18-18zm0 64c30.9 0 56 25.1 56 56s-25.1 56-56 56-56-25.1-56-56 25.1-56 56-56z"/>
    <path d="M361 368c-9 0-17.5 1.5-25.5 4.2l-2.7-7.3c-1.4-3.7-5.5-5.6-9.2-4.2-3.7 1.4-5.6 5.5-4.2 9.2l2.7 7.2c-14.4 8.6-25.8 21.3-32.6 36.5l-7.2-2.7c-3.7-1.4-7.8 0.5-9.2 4.2-1.4 3.7 0.5 7.8 4.2 9.2l7.3 2.7c-2.7 8-4.2 16.5-4.2 25.5 0 9 1.5 17.5 4.2 25.5l-7.3 2.7c-3.7 1.4-5.6 5.5-4.2 9.2 1.1 2.8 3.8 4.6 6.7 4.6 0.8 0 1.7-0.1 2.5-0.4l7.2-2.7c6.8 15.2 18.2 27.9 32.6 36.5l-2.7 7.2c-1.4 3.7 0.5 7.8 4.2 9.2 0.8 0.3 1.7 0.4 2.5 0.4 2.9 0 5.6-1.8 6.7-4.6l2.7-7.3c8 2.7 16.5 4.2 25.5 4.2s17.5-1.5 25.5-4.2l2.7 7.3c1.1 2.8 3.8 4.6 6.7 4.6 0.8 0 1.7-0.1 2.5-0.4 3.7-1.4 5.6-5.5 4.2-9.2l-2.7-7.2c14.4-8.6 25.8-21.3 32.6-36.5l7.2 2.7c0.8 0.3 1.7 0.4 2.5 0.4 2.9 0 5.6-1.8 6.7-4.6 1.4-3.7-0.5-7.8-4.2-9.2l-7.3-2.7c2.7-8 4.2-16.5 4.2-25.5 0-9-1.5-17.5-4.2-25.5l7.3-2.7c3.7-1.4 5.6-5.5 4.2-9.2-1.4-3.7-5.5-5.6-9.2-4.2l-7.2 2.7c-6.8-15.2-18.2-27.9-32.6-36.5l2.7-7.2c1.4-3.7-0.5-7.8-4.2-9.2-3.7-1.4-7.8 0.5-9.2 4.2l-2.7 7.3c-8-2.7-16.5-4.2-25.5-4.2zm0 42c35.3 0 64 28.7 64 64s-28.7 64-64 64-64-28.7-64-64 28.7-64 64-64z"/>
  </g>
</svg>
